<svg width="18" height="20" viewBox="0 0 18 20" fill="none" xmlns="http://www.w3.org/2000/svg">
<path fill-rule="evenodd" clip-rule="evenodd" d="M17.7307 5.10365L17.5907 4.85445C17.4101 4.5531 17.1554 4.30264 16.8507 4.12678L10.1404 0.269138C9.8366 0.0934506 9.49169 0.00061802 9.14037 0H8.85036C8.49905 0.00061802 8.15413 0.0934506 7.85032 0.269138L1.14005 4.13675C0.837004 4.31145 0.585284 4.56235 0.410017 4.86442L0.270011 5.11362C0.0937538 5.41649 0.000620025 5.76028 0 6.11042V13.8357C0.000620025 14.1858 0.0937538 14.5296 0.270011 14.8325L0.410017 15.0817C0.589814 15.3802 0.840524 15.6301 1.14005 15.8093L7.86032 19.667C8.16263 19.8463 8.50855 19.9394 8.86036 19.9361H9.14037C9.49169 19.9355 9.8366 19.8427 10.1404 19.667L16.8507 15.7994C17.1567 15.6286 17.4094 15.3767 17.5807 15.0717L17.7307 14.8225C17.9048 14.5188 17.9978 14.1756 18.0007 13.8257V6.10045C18.0001 5.75032 17.907 5.40652 17.7307 5.10365ZM8.85036 1.99361H9.14037L15.0006 5.36282L9.00037 8.81177L3.00012 5.36282L8.85036 1.99361ZM10.0004 17.4441L15.8506 14.0749L16.0007 13.8257V7.08729L10.0004 10.5462V17.4441Z" fill="black"/>
</svg>
