<svg width="16" height="16" viewBox="0 0 16 16" fill="none" xmlns="http://www.w3.org/2000/svg">
<path fill-rule="evenodd" clip-rule="evenodd" d="M13.82 4.74683L13.7267 4.58016C13.6063 4.37862 13.4365 4.21112 13.2333 4.0935L8.76 1.5135C8.55746 1.396 8.32753 1.33391 8.09333 1.3335H7.9C7.6658 1.33391 7.43586 1.396 7.23333 1.5135L2.76 4.10016C2.55798 4.217 2.39017 4.38481 2.27333 4.58683L2.18 4.7535C2.0625 4.95606 2.00041 5.18599 2 5.42016V10.5868C2.00041 10.821 2.0625 11.051 2.18 11.2535L2.27333 11.4202C2.39319 11.6198 2.56033 11.787 2.76 11.9068L7.24 14.4868C7.44153 14.6068 7.67213 14.669 7.90666 14.6668H8.09333C8.32753 14.6664 8.55746 14.6044 8.76 14.4868L13.2333 11.9002C13.4373 11.786 13.6058 11.6175 13.72 11.4135L13.82 11.2468C13.9361 11.0437 13.9981 10.8142 14 10.5802V5.4135C13.9996 5.17932 13.9375 4.94939 13.82 4.74683ZM7.9 2.66683H8.09333L12 4.92016L8 7.22683L4 4.92016L7.9 2.66683ZM8.66666 13.0002L12.5667 10.7468L12.6667 10.5802V6.0735L8.66666 8.38683V13.0002Z" fill="black"/>
</svg>
